#!OML:ASF E:\CV Data\Top Level 1\Subject 1\Session 1\player.ASF
:FULLY-SPECIFIED
:DEGREES
1072
root 3.96788 16.2865 2.24677 17.0006 8.55091 -0.139063
lowerback 21.3666 6.43465 17.0107
upperback -0.0634443 13.6873 8.82094
thorax -10.3918 5.73284 -3.27467
lowerneck -13.6045 -12.432 -15.4136
upperneck -2.83319 -14.2824 5.79226
head 2.68059 -6.86677 3.07939
rclavicle -2.70347e-014 -3.18055e-014
rhumerus 50.1665 390.145 344.33
rradius 45.2203
rwrist -16.1608
rhand -21.3876 -10.9439
rfingers 7.12502
rthumb 5.00013 -40.8649
lclavicle -2.70347e-014 -3.18055e-014
lhumerus -38.7866 -15.632 94.0927
lradius 68.6477
lwrist -28.93
lhand -24.8359 -3.61118
lfingers 7.12502
lthumb 1.67001 26.362
rfemur -1.76644 -8.44562 21.2411
rtibia 67.6949
rfoot 0.840455 -17.9876
rtoes -2.86214
lfemur -54.1414 0.55887 -35.9434
ltibia 32.7855
lfoot 7.36231 -18.1139
ltoes 19.2045
1073
root 3.87028 16.3298 2.35485 17.4759 9.52957 -0.00227594
lowerback 21.1442 6.35157 16.9607
upperback -0.0703556 13.4928 8.61741
thorax -10.2571 5.65664 -3.39567
lowerneck -13.0989 -12.7058 -15.2778
upperneck -3.39802 -14.772 6.59994
head 2.5413 -7.08592 3.29283
rclavicle -1.65389e-013 -4.77083e-014
rhumerus 53.0581 392.83 338.466
rradius 45.3463
rwrist -28.6128
rhand -23.4685 -11.444
rfingers 7.12502
rthumb 2.99062 -41.4028
lclavicle -1.65389e-013 -4.77083e-014
lhumerus -40.3239 -15.987 93.2785
lradius 71.5271
lwrist -28.0855
lhand -25.4065 -3.99816
lfingers 7.12502
lthumb 1.11894 25.9787
rfemur -1.43032 -9.1112 21.7093
rtibia 66.7086
rfoot 1.26593 -18.3544
rtoes -1.13805
lfemur -54.1207 0.846428 -36.2551
ltibia 32.6385
lfoot 7.10931 -19.2094
ltoes 19.9552
1074
root 3.76566 16.3688 2.46199 17.9052 10.6404 0.202013
lowerback 20.9367 6.31984 16.8044
upperback -0.0698103 13.3427 8.40191
thorax -10.1353 5.60598 -3.49034
lowerneck -12.4189 -13.115 -15.2331
upperneck -4.26082 -15.4475 7.74411
head 2.34601 -7.39269 3.61641
rclavicle -1.22451e-013 -5.725e-014
rhumerus 53.9153 394.622 329.907
rradius 44.9972
rwrist -40.2971
rhand -23.2387 -12.4718
rfingers 7.12502
rthumb 3.21256 -42.4274
lclavicle -1.22451e-013 -5.725e-014
lhumerus -41.5691 -16.4934 92.524
lradius 74.0713
lwrist -25.9191
lhand -25.6485 -4.49544
lfingers 7.12502
lthumb 0.885265 25.4825
rfemur -0.917184 -9.87466 22.1225
rtibia 65.5524
rfoot 1.88274 -18.396
rtoes -0.0754294
lfemur -54.0702 1.13898 -36.6376
ltibia 32.5572
lfoot 6.84007 -20.4355
ltoes 20.7044
1075
root 3.65744 16.4052 2.56735 18.2703 11.8423 0.426423
lowerback 20.7803 6.37906 16.5864
upperback -0.034594 13.3094 8.23451
thorax -10.0102 5.61548 -3.53313
lowerneck -11.5098 -13.6482 -15.3128
upperneck -5.53675 -16.2802 9.10046
head 2.04839 -7.78272 4.02888
rclavicle -5.725e-014 -1.27222e-013
rhumerus 53.0177 395.712 319.693
rradius 43.8783
rwrist -47.2903
rhand -22.9574 -14.0636
rfingers 7.12502
rthumb 3.48427 -44.0149
lclavicle -5.725e-014 -1.27222e-013
lhumerus -42.476 -17.1644 91.9371
lradius 76.3071
lwrist -22.7541
lhand -25.5258 -5.08303
lfingers 7.12502
lthumb 1.0037 24.8944
rfemur -0.268673 -10.6826 22.5033
rtibia 64.32
rfoot 2.60452 -18.1295
rtoes 0.451287
lfemur -54.0259 1.34155 -36.9584
ltibia 32.6519
lfoot 6.5109 -21.608
ltoes 21.371
1076
root 3.54968 16.4404 2.67058 18.5722 13.0734 0.611431
lowerback 20.6844 6.55321 16.3464
upperback 0.0443989 13.4398 8.16766
thorax -9.87567 5.70694 -3.4968
lowerneck -10.3855 -14.2606 -15.5357
upperneck -7.19205 -17.1957 10.5314
head 1.64921 -8.22857 4.50147
rclavicle -6.83819e-014 -7.95139e-014
rhumerus 51.1529 396.451 309.359
rradius 42.0666
rwrist -48.5918
rhand -23.262 -14.9529
rfingers 7.12502
rthumb 3.19006 -44.9088
lclavicle -6.83819e-014 -7.95139e-014
lhumerus -43.0631 -17.9427 91.5702
lradius 78.2756
lwrist -18.9902
lhand -25.0203 -5.62685
lfingers 7.12502
lthumb 1.49197 24.3477
rfemur 0.478895 -11.4647 22.8767
rtibia 63.0096
rfoot 3.39384 -17.5948
rtoes 0.65643
lfemur -53.9348 1.38067 -37.0926
ltibia 32.7811
lfoot 6.1881 -22.5898
ltoes 21.8477
1077
root 3.44321 16.4455 2.76467 18.8293 14.2794 0.711243
lowerback 20.6216 6.84962 16.1266
upperback 0.169318 13.7483 8.22079
thorax -9.71026 5.88759 -3.37942
lowerneck -9.11554 -14.904 -15.881
upperneck -9.11317 -18.1247 11.9238
head 1.17639 -8.69913 5.00215
rclavicle 1.90833e-014 -6.99722e-014
rhumerus 49.0746 397.183 300.161
rradius 39.6909
rwrist -44.9885
rhand -24.3826 -14.3773
rfingers 7.12502
rthumb 2.10782 -44.3467
lclavicle 1.90833e-014 -6.99722e-014
lhumerus -43.3475 -18.7551 91.4062
lradius 79.9856
lwrist -15.0448
lhand -24.239 -6.08548
lfingers 7.12502
lthumb 2.24658 23.8824
rfemur 1.24974 -12.1668 23.2713
rtibia 61.7616
rfoot 4.07496 -16.854
rtoes 0.711598
lfemur -53.9506 1.19756 -36.9902
ltibia 32.993
lfoot 5.9269 -23.2888
ltoes 22.07
